<svg xmlns="http://www.w3.org/2000/svg" width="46.07" height="62.816" viewBox="0 0 46.07 62.816"><g transform="translate(0)"><path d="M-55703.7,3715.546c.43,1.6-.687,4.094.461,6.051s3.9,2.3,5,3.413a17.883,17.883,0,0,1,1.773,3.141l-5.547,16.195a2.075,2.075,0,0,0,.734,2.291,2.085,2.085,0,0,0,2.4.086l3.477-2.46,1.234,4.072a2.08,2.08,0,0,0,1.961,1.5,2.081,2.081,0,0,0,2.016-1.416l5.43-15.609a3.763,3.763,0,0,0,2.938,0l5.367,15.651a2.106,2.106,0,0,0,2.031,1.415,2.1,2.1,0,0,0,1.969-1.5l1.219-4.072,3.469,2.429a2.11,2.11,0,0,0,2.414-.085,2.088,2.088,0,0,0,.734-2.291l-5.508-16.164a18.606,18.606,0,0,1,1.758-3.14c1.141-1.173,3.922-1.487,5.016-3.445s.055-4.5.461-6.051,2.633-3.172,2.633-5.465-2.242-4-2.633-5.464.688-4.094-.461-6.052-3.9-2.3-5-3.413-1.445-3.915-3.43-5.025-4.492,0-6.047-.45-3.164-2.628-5.461-2.628c-2.312,0-3.992,2.23-5.469,2.628-1.633.43-4.086-.691-6.055.45s-2.281,3.895-3.406,5.015-3.922,1.445-4.961,3.423c-1.055,1.979,0,4.5-.461,6.052s-2.687,3.151-2.687,5.464,2.227,3.968,2.633,5.454Zm11.578,32.234-1.227-4.094a2.094,2.094,0,0,0-1.344-1.345,2.105,2.105,0,0,0-1.883.3l-3.477,2.429c5.609-16.342,5.141-15.085,5.234-15.085,1.93,1.12,4.508,0,6.055.45a8.59,8.59,0,0,1,2.094,1.277Zm22.1-5.235a2.088,2.088,0,0,0-1.906-.26,2.083,2.083,0,0,0-1.32,1.412l-1.227,4.083-5.508-16.028a7.932,7.932,0,0,1,2.094-1.267c1.648-.439,4.086.681,6.055-.461.094-.062-.375-1.277,5.234,15.034Zm-33.039-34.861c1.492-2.094,1.7-2.785,1.461-5.5s-.094-2.9,2.352-4.02c2.43-1.12,2.914-1.612,4.023-4.041s1.453-2.575,4.031-2.334a6.418,6.418,0,0,0,5.492-1.465c2.117-1.466,2.586-1.56,4.8,0,2.2,1.56,2.828,1.7,5.492,1.465s2.914-.094,4.031,2.334,1.625,2.921,4.023,4.041c2.414,1.12,2.594,1.4,2.344,4.02a6.383,6.383,0,0,0,1.477,5.5c1.461,2.1,1.555,2.585,0,4.794s-1.711,2.785-1.477,5.5c.25,2.712.1,2.9-2.344,4.031-2.43,1.131-2.906,1.6-4.023,4.03s-1.406,2.575-4.031,2.345a6.432,6.432,0,0,0-5.492,1.455c-2.117,1.455-2.594,1.56-4.8,0a5.977,5.977,0,0,0-3.977-1.55c-1.5,0-3.211.429-4.094-.073-1.2-.7-1.523-3.235-2.984-4.68s-3.992-1.8-4.68-2.973c-.672-1.173.281-3.56-.242-5.538-.539-1.979-2.562-3.539-2.562-4.931a4.912,4.912,0,0,1,1.172-2.407h0Z" transform="translate(55706.328 -3687.06)" fill="#2b2a29" fill-rule="evenodd"/><path d="M-55590.117,3818.947a15.7,15.7,0,0,0,15.7-15.7,15.7,15.7,0,0,0-15.7-15.7,15.7,15.7,0,0,0-15.7,15.7A15.7,15.7,0,0,0-55590.117,3818.947Zm0-29.313a13.613,13.613,0,0,1,13.613,13.61,13.613,13.613,0,0,1-13.613,13.61,13.61,13.61,0,0,1-13.609-13.61,13.629,13.629,0,0,1,3.984-9.623A13.61,13.61,0,0,1-55590.117,3789.634Z" transform="translate(55613.148 -3780.212)" fill="#2b2a29" fill-rule="evenodd"/><path d="M-55504.324,3886.38a1.048,1.048,0,0,0,.992-1.047,6.634,6.634,0,0,1,2.008-4.941c1.582-1.57,3.441-1.99,5.742-2.377a12.134,12.134,0,0,0,4.445-1.717c1.359,5.234-1.117,11.725-6.281,13.443a12.343,12.343,0,0,1-3.75.617,20.986,20.986,0,0,1,6.285-7.15,1.054,1.054,0,0,0,.418-.685,1.051,1.051,0,0,0-.191-.781,1.044,1.044,0,0,0-1.453-.23,21.749,21.749,0,0,0-7.652,9.421,1.042,1.042,0,0,0,.1.911,1.04,1.04,0,0,0,.777.482c5.477.586,10.395-1.633,12.836-6.91a14.559,14.559,0,0,0,.438-11.191,1.036,1.036,0,0,0-.68-.615,1.051,1.051,0,0,0-.9.154,10.955,10.955,0,0,1-4.762,2.146c-2.566.429-4.844.952-6.867,2.952a8.767,8.767,0,0,0-2.609,6.512,1.051,1.051,0,0,0,.344.731,1.039,1.039,0,0,0,.762.274Z" transform="translate(55520.086 -3859.967)" fill="#2b2a29" fill-rule="evenodd"/></g></svg>