<svg xmlns="http://www.w3.org/2000/svg" width="62.82" height="54.266" viewBox="0 0 62.82 54.266"><g transform="translate(0.001)"><path d="M-53290.977,4178.892a1.22,1.22,0,0,0-1.5.868l-.02.041a1.231,1.231,0,0,0,.867,1.5,1.3,1.3,0,0,0,.324.042,1.226,1.226,0,0,0,1.18-.909l.016-.041A1.232,1.232,0,0,0-53290.977,4178.892ZM-53290.977,4178.892Z" transform="translate(53347.289 -4147.259)" fill="#2b2a29" fill-rule="evenodd"/><path d="M-53982.676,3754.582l-32.816-8.792a2.92,2.92,0,0,0-3.574,2.065l-1.3,4.857h-8.484a2.927,2.927,0,0,0-2.926,2.921v3.25l-9.383,2.514a2.92,2.92,0,0,0-2.062,3.578l8.793,32.814a2.933,2.933,0,0,0,2.828,2.165,2.853,2.853,0,0,0,.746-.1l27.355-7.329h8.609l1.914.513a2.948,2.948,0,0,0,.762.1,2.937,2.937,0,0,0,1.457-.392,2.9,2.9,0,0,0,1.359-1.774l1.98-7.407a1.223,1.223,0,0,0-.863-1.5,1.216,1.216,0,0,0-1.5.868l-1.988,7.406a.477.477,0,0,1-.223.284.458.458,0,0,1-.355.047l-32.812-8.793a.462.462,0,0,1-.328-.572l8.793-32.814a.465.465,0,0,1,.57-.33l32.816,8.792a.475.475,0,0,1,.332.573l-4.258,15.858a1.236,1.236,0,0,0,.871,1.5,1.22,1.22,0,0,0,1.5-.868l4.258-15.857a2.931,2.931,0,0,0-2.07-3.578Zm-48.816,42.9a.462.462,0,0,1-.57-.33l-8.793-32.814a.455.455,0,0,1,.047-.354.442.442,0,0,1,.281-.218l8.746-2.344V3789.6a2.927,2.927,0,0,0,2.926,2.922h15.867l-18.5,4.958Zm3.633-16.815a2.926,2.926,0,0,0,2.066,3.578l21.742,5.825h-24.8a.466.466,0,0,1-.469-.467v-33.971a.466.466,0,0,1,.469-.468h7.828ZM-54027.859,3780.669Z" transform="translate(54043.328 -3745.689)" fill="#2b2a29" fill-rule="evenodd"/><path d="M-53631.254,3836.184l.012-.071a1.221,1.221,0,0,0-.863-1.5,1.237,1.237,0,0,0-1.508.868l-.012.072a1.225,1.225,0,0,0,.863,1.5,1.224,1.224,0,0,0,.32.042,1.216,1.216,0,0,0,1.18-.91ZM-53631.254,3836.184Z" transform="translate(53663.547 -3828.086)" fill="#2b2a29" fill-rule="evenodd"/><path d="M-53709.25,3899.629a1.228,1.228,0,0,0-1.5.867l-4.719,17.619a1.222,1.222,0,0,0,.867,1.5,1.2,1.2,0,0,0,.316.042,1.232,1.232,0,0,0,1.188-.909l4.719-17.62a1.228,1.228,0,0,0-.867-1.5ZM-53709.25,3899.629Z" transform="translate(53739.426 -3888.362)" fill="#2b2a29" fill-rule="evenodd"/></g></svg>