<svg xmlns="http://www.w3.org/2000/svg" width="57.832" height="53.312" viewBox="0 0 57.832 53.312"><g transform="translate(0.002)"><path d="M-53986.684,6132.556h-4.973V6131a1.126,1.126,0,0,0-1.129-1.13,1.131,1.131,0,0,0-1.129,1.13v1.556h-19.426V6131a1.129,1.129,0,0,0-1.129-1.13,1.129,1.129,0,0,0-1.129,1.13v1.556h-19.426V6131a1.13,1.13,0,0,0-1.133-1.13,1.128,1.128,0,0,0-1.125,1.13v1.556h-4.973a1.133,1.133,0,0,0-1.129,1.129,1.133,1.133,0,0,0,1.129,1.13h55.57a1.128,1.128,0,0,0,1.129-1.13,1.128,1.128,0,0,0-1.129-1.129ZM-53986.684,6132.556Z" transform="translate(54043.387 -6101.157)" fill="#2b2a29" fill-rule="evenodd"/><path d="M-53214.586,6064.469a1.135,1.135,0,0,0,.8-.332,1.116,1.116,0,0,0,.332-.8,1.118,1.118,0,0,0-.332-.8,1.135,1.135,0,0,0-.8-.331,1.121,1.121,0,0,0-.8.331,1.122,1.122,0,0,0-.336.8,1.12,1.12,0,0,0,.336.8A1.121,1.121,0,0,0-53214.586,6064.469ZM-53214.586,6064.469Z" transform="translate(53271.289 -6038.04)" fill="#2b2a29" fill-rule="evenodd"/><path d="M-54042.281,6064.469h15.824v1.444a1.131,1.131,0,0,0,1.129,1.129,1.131,1.131,0,0,0,1.133-1.129v-1.444h19.426v1.444a1.128,1.128,0,0,0,1.129,1.129,1.128,1.128,0,0,0,1.129-1.129v-1.444h11.281a1.131,1.131,0,0,0,1.129-1.129,1.131,1.131,0,0,0-1.129-1.129h-51.051a1.132,1.132,0,0,0-1.133,1.129,1.131,1.131,0,0,0,1.133,1.129ZM-54042.281,6064.469Z" transform="translate(54043.414 -6038.04)" fill="#2b2a29" fill-rule="evenodd"/><path d="M-53965.988,6232.116a1.123,1.123,0,0,0-1.539-.412,1.122,1.122,0,0,0-.41,1.542,6.605,6.605,0,0,1,0,6.625,8.894,8.894,0,0,0,0,8.887,1.125,1.125,0,0,0,.973.564,1.141,1.141,0,0,0,.57-.153,1.125,1.125,0,0,0,.406-1.543,6.661,6.661,0,0,1,0-6.624,8.875,8.875,0,0,0,0-8.887ZM-53965.988,6232.116Z" transform="translate(53974.109 -6196.011)" fill="#2b2a29" fill-rule="evenodd"/><path d="M-53317.687,6232.116a1.131,1.131,0,0,0-1.547-.412,1.132,1.132,0,0,0-.41,1.542,6.643,6.643,0,0,1,0,6.625,8.894,8.894,0,0,0,0,8.887,1.126,1.126,0,0,0,.977.564,1.093,1.093,0,0,0,.563-.153,1.135,1.135,0,0,0,.418-1.543,6.6,6.6,0,0,1,0-6.624A8.894,8.894,0,0,0-53317.687,6232.116ZM-53317.687,6232.116Z" transform="translate(53369.352 -6196.011)" fill="#2b2a29" fill-rule="evenodd"/><path d="M-53749.883,6232.116a1.129,1.129,0,0,0-1.543-.412,1.127,1.127,0,0,0-.414,1.542,6.624,6.624,0,0,1,0,6.625,8.894,8.894,0,0,0,0,8.887,1.123,1.123,0,0,0,.98.564,1.124,1.124,0,0,0,.563-.153,1.131,1.131,0,0,0,.414-1.543,6.622,6.622,0,0,1,0-6.624,8.913,8.913,0,0,0,0-8.887ZM-53749.883,6232.116Z" transform="translate(53772.527 -6196.011)" fill="#2b2a29" fill-rule="evenodd"/><path d="M-53520.32,6233.816a1.127,1.127,0,0,0,.508-.12,1.133,1.133,0,0,0,.508-1.513,1.132,1.132,0,0,0-1.457-.536,1.13,1.13,0,0,0-.6,1.482.367.367,0,0,0,.043.082,1.124,1.124,0,0,0,1,.6ZM-53520.32,6233.816Z" transform="translate(53556.492 -6196.015)" fill="#2b2a29" fill-rule="evenodd"/><path d="M-53533.7,6298.856a1.131,1.131,0,0,0-1.219,1.032,6.541,6.541,0,0,1-.867,2.766,8.912,8.912,0,0,0,0,8.886,1.133,1.133,0,0,0,.98.564,1.128,1.128,0,0,0,.563-.152,1.123,1.123,0,0,0,.41-1.544,6.641,6.641,0,0,1,0-6.624,8.91,8.91,0,0,0,1.164-3.71A1.129,1.129,0,0,0-53533.7,6298.856ZM-53533.7,6298.856Z" transform="translate(53570.977 -6258.793)" fill="#2b2a29" fill-rule="evenodd"/><path d="M-53997.5,5708.072a1.131,1.131,0,0,0,1.586-.2l.953-1.236a6.178,6.178,0,0,0,.816,2.769,3.87,3.87,0,0,1,0,3.86l-.672,1.157a8.434,8.434,0,0,0,0,8.437,1.134,1.134,0,0,0,.98.563,1.112,1.112,0,0,0,.563-.152,1.134,1.134,0,0,0,.414-1.543,6.181,6.181,0,0,1,0-6.174l.668-1.157a6.121,6.121,0,0,0,0-6.122,3.845,3.845,0,0,1-.5-1.608l.93,1.207a1.136,1.136,0,0,0,.895.438,1.148,1.148,0,0,0,.7-.236,1.129,1.129,0,0,0,.2-1.584l-2.973-3.839a1.127,1.127,0,0,0-.891-.438,1.129,1.129,0,0,0-.895.438l-2.969,3.839A1.129,1.129,0,0,0-53997.5,5708.072ZM-53997.5,5708.072Z" transform="translate(54000.984 -5702.209)" fill="#2b2a29" fill-rule="evenodd"/><path d="M-53781.4,5708.063a1.136,1.136,0,0,0,1.59-.2l.957-1.237a6.13,6.13,0,0,0,.813,2.77,3.867,3.867,0,0,1,0,3.858l-.672,1.158a8.452,8.452,0,0,0,0,8.437,1.129,1.129,0,0,0,.98.564,1.133,1.133,0,0,0,.563-.152,1.136,1.136,0,0,0,.414-1.544,6.18,6.18,0,0,1,0-6.174l.668-1.157a6.12,6.12,0,0,0,0-6.122,3.851,3.851,0,0,1-.5-1.609l.934,1.206a1.125,1.125,0,0,0,.895.439,1.137,1.137,0,0,0,.691-.237,1.128,1.128,0,0,0,.2-1.584l-2.965-3.839a1.143,1.143,0,0,0-.895-.439,1.128,1.128,0,0,0-.895.439l-2.973,3.839a1.136,1.136,0,0,0,.2,1.584ZM-53781.4,5708.063Z" transform="translate(53799.398 -5702.2)" fill="#2b2a29" fill-rule="evenodd"/><path d="M-53565.289,5708.063a1.11,1.11,0,0,0,.688.237,1.118,1.118,0,0,0,.891-.438l.961-1.237a6.082,6.082,0,0,0,.813,2.77,3.869,3.869,0,0,1,0,3.859l-.672,1.157a8.471,8.471,0,0,0,0,8.437,1.14,1.14,0,0,0,.984.564,1.094,1.094,0,0,0,.555-.152,1.127,1.127,0,0,0,.422-1.544,6.142,6.142,0,0,1,0-6.174l.672-1.157a6.159,6.159,0,0,0,0-6.122,3.93,3.93,0,0,1-.516-1.609l.938,1.207a1.132,1.132,0,0,0,1.586.2,1.13,1.13,0,0,0,.2-1.584l-2.969-3.839a1.144,1.144,0,0,0-.9-.439,1.115,1.115,0,0,0-.891.439l-2.969,3.839a1.123,1.123,0,0,0,.2,1.584ZM-53565.289,5708.063Z" transform="translate(53597.805 -5702.2)" fill="#2b2a29" fill-rule="evenodd"/><path d="M-53349.187,5708.063a1.118,1.118,0,0,0,.688.237,1.125,1.125,0,0,0,.895-.438l.953-1.237a6.234,6.234,0,0,0,.816,2.77,3.867,3.867,0,0,1,0,3.858l-.668,1.158a8.433,8.433,0,0,0,0,8.437,1.132,1.132,0,0,0,.977.564,1.136,1.136,0,0,0,.566-.152,1.131,1.131,0,0,0,.41-1.544,6.18,6.18,0,0,1,0-6.174l.668-1.157a6.1,6.1,0,0,0,0-6.122,3.908,3.908,0,0,1-.5-1.609l.93,1.206a1.136,1.136,0,0,0,1.59.2,1.129,1.129,0,0,0,.2-1.584l-2.969-3.839a1.137,1.137,0,0,0-.895-.439,1.121,1.121,0,0,0-.891.439l-2.973,3.839a1.13,1.13,0,0,0,.2,1.584ZM-53349.187,5708.063Z" transform="translate(53396.207 -5702.2)" fill="#2b2a29" fill-rule="evenodd"/></g></svg>