<?xml version="1.0" encoding="iso-8859-1"?>
<!-- Generator: Adobe Illustrator 19.0.0, SVG Export Plug-In . SVG Version: 6.00 Build 0)  -->
<svg version="1.1" id="Capa_1" xmlns="http://www.w3.org/2000/svg" xmlns:xlink="http://www.w3.org/1999/xlink" x="0px" y="0px"
	 viewBox="0 0 512.257 512.257" style="enable-background:new 0 0 512.257 512.257;" xml:space="preserve">
<g>
	<g>
		<g>
			<path d="M147.379,213.709c-4.881-4.18-12.227-3.612-16.407,1.269c-3.731,4.356-3.731,10.781,0,15.138L247.335,346.48
				c4.493,4.595,11.86,4.678,16.455,0.185c0.062-0.061,0.124-0.122,0.185-0.185L458.07,142.843l16.64-17.455l33.396-34.909
				c4.92-4.134,5.557-11.474,1.423-16.395c-4.134-4.92-11.474-5.557-16.395-1.423c-0.663,0.557-1.261,1.186-1.785,1.876
				l-29.905,31.069l-16.175,16.989L255.364,321.694L147.379,213.709z"/>
			<path d="M490.768,158.785h0.233c-4.742-4.338-12.102-4.01-16.44,0.732c-2.691,2.942-3.689,7.057-2.644,10.905
				c47.548,119.414-10.711,254.763-130.124,302.31S87.03,462.021,39.482,342.607C-8.066,223.194,50.193,87.845,169.607,40.297
				C257.374,5.35,357.559,26.925,423.161,94.901c4.976,4.067,12.307,3.33,16.374-1.646c3.66-4.478,3.476-10.964-0.432-15.227
				c-0.48-0.348-0.986-0.66-1.513-0.931C338.714-23.513,176.998-24.919,76.388,73.957s-102.017,260.592-3.141,361.202
				c98.876,100.611,260.592,102.017,361.202,3.141c72.747-71.493,95.986-179.413,59.112-274.511
				C493.061,161.914,492.101,160.194,490.768,158.785z"/>
		</g>
	</g>
</g>
<g>
</g>
<g>
</g>
<g>
</g>
<g>
</g>
<g>
</g>
<g>
</g>
<g>
</g>
<g>
</g>
<g>
</g>
<g>
</g>
<g>
</g>
<g>
</g>
<g>
</g>
<g>
</g>
<g>
</g>
</svg>
