<svg xmlns="http://www.w3.org/2000/svg" width="62.82" height="44.414" viewBox="0 0 62.82 44.414"><g transform="translate(0.002)"><path d="M-55228.992,6300.247a1.23,1.23,0,0,0-1.227-1.227,1.225,1.225,0,0,0-1.227,1.227,1.226,1.226,0,0,0,1.227,1.228A1.231,1.231,0,0,0-55228.992,6300.247Z" transform="translate(55274.453 -6262.242)" fill="#2b2a29" fill-rule="evenodd"/><path d="M-55761.922,5794.875a5.221,5.221,0,0,0-5.809,2.694,27.971,27.971,0,0,0-1.883,4.478l-.57-.083c-1.254-.18-3.145-.448-5.191-.686a17.7,17.7,0,0,1-4.867-1.548,48.557,48.557,0,0,1-4.758-2.513l-1.68-1.015a6,6,0,0,0-3.066-.859h0a6,6,0,0,0-3.062.859l-1.68,1.009a49.493,49.493,0,0,1-4.758,2.516,17.714,17.714,0,0,1-4.863,1.548c-1.855.217-3.559.454-4.676.613-.324.045-1.008.145-1.074.154a28.2,28.2,0,0,0-1.879-4.474,5.223,5.223,0,0,0-5.809-2.694c-1.34.364-3.594,1.632-3.594,6.038a34.44,34.44,0,0,0,7.719,21.695l2.277,2.79s3.152,3.886,4.129,4.923a34.495,34.495,0,0,0,3.531,3.283,27.451,27.451,0,0,0,6.02,3.733,21.522,21.522,0,0,0,4.738,1.52,14.565,14.565,0,0,0,2.7.286h.535a15.129,15.129,0,0,0,3.082-.363,22.57,22.57,0,0,0,5.434-1.957,1.227,1.227,0,0,0,.539-1.649,1.222,1.222,0,0,0-1.094-.672,1.2,1.2,0,0,0-.555.133,17.16,17.16,0,0,1-7.41,2.055h-.531a16.471,16.471,0,0,1-6.434-1.592,29.927,29.927,0,0,1-11.293-9.44c.164-1.051.293-2.136.375-3.247a34.482,34.482,0,0,0,17.656,5.15c.055,0,.156,0,.3,0a34.777,34.777,0,0,0,17.3-5.124c.086,1.09.207,2.155.371,3.187-.668.875-1.363,1.714-2.066,2.494a1.215,1.215,0,0,0-.316.885,1.235,1.235,0,0,0,.4.849,1.232,1.232,0,0,0,.824.316,1.24,1.24,0,0,0,.91-.4c.645-.714,1.277-1.471,1.895-2.262.117-.145,1.172-1.366,1.172-1.366l2.879-3.531a34.427,34.427,0,0,0,7.727-21.7c0-4.406-2.258-5.674-3.6-6.038Zm-47.98,28.172-1.621-1.99a31.974,31.974,0,0,1-7.168-20.144c0-2.114.6-3.349,1.777-3.67a2.8,2.8,0,0,1,3,1.467,24.6,24.6,0,0,1,1.813,4.4c.051.167.484,1.638.66,2.329a55.478,55.478,0,0,1,1.746,13.453C-55809.7,5820.314-55809.77,5821.7-55809.9,5823.046Zm1.75-14c-.355-1.977-.742-3.574-1.02-4.626,1.09-.157,3.117-.449,5.34-.709a19.661,19.661,0,0,0,5.59-1.747,50.578,50.578,0,0,0,5.008-2.642l1.68-1a3.522,3.522,0,0,1,1.809-.5,3.557,3.557,0,0,1,1.813.5l1.68,1a50.178,50.178,0,0,0,5,2.642,19.718,19.718,0,0,0,5.594,1.747c1.844.216,3.516.45,4.613.6l.723.1c-.281,1.051-.672,2.65-1.027,4.627l-.184-.015c-1.133-.088-3.027-.236-5.094-.368a42.8,42.8,0,0,1-8.969-2.051l-1.535-.5a8.9,8.9,0,0,0-5.23,0l-1.535.5a42.781,42.781,0,0,1-8.961,2.051c-2.07.132-3.965.28-5.1.368Zm35.891,9.813c0,.25,0,.5,0,.744a32.588,32.588,0,0,1-17.426,5.5c-.031,0-.055,0-.09,0a32.617,32.617,0,0,1-17.48-5.538c0-.226,0-.453,0-.681a55.057,55.057,0,0,0-.523-7.409h.012c1.121-.087,3-.235,5.055-.366a43.842,43.842,0,0,0,9.566-2.166l1.539-.5a6.4,6.4,0,0,1,3.711,0l1.539.5a43.807,43.807,0,0,0,9.563,2.166c2.051.129,3.926.277,5.055.365a54.64,54.64,0,0,0-.527,7.383Zm4.313,2.195-1.648,2.024a41.216,41.216,0,0,1-.207-4.219,54.524,54.524,0,0,1,1.117-10.681c.285-1.418.574-2.545.766-3.24.109-.4.441-1.458.539-1.781a24.822,24.822,0,0,1,1.824-4.451,2.8,2.8,0,0,1,2.992-1.467c1.184.321,1.785,1.556,1.785,3.67a31.979,31.979,0,0,1-7.168,20.145Z" transform="translate(55821.145 -5794.728)" fill="#2b2a29" fill-rule="evenodd"/></g></svg>