<svg xmlns="http://www.w3.org/2000/svg" width="62.77" height="62.818" viewBox="0 0 62.77 62.818"><g transform="translate(0)"><path d="M-55758.992,7692.048a25.034,25.034,0,0,0-2.187-4.984.937.937,0,0,0-.992-.419,25.269,25.269,0,0,0-5.1,1.9c-3.617,1.805-6.145,4.216-7.309,6.971a13.472,13.472,0,0,0-.422,8.195,26.081,26.081,0,0,0-4.906-4.271,38.222,38.222,0,0,0-4.266-6.536.919.919,0,0,0-1.426,1.16,36.714,36.714,0,0,1,3.391,4.995l-8.379-1.634-7.965-10.863a12.862,12.862,0,0,1,2.32.237,15.879,15.879,0,0,1,7.191,3.7.921.921,0,0,0,1.2-1.4,17.724,17.724,0,0,0-8.031-4.11c-4.219-.825-9.133.259-14.223,3.134a36.791,36.791,0,0,0-6.437,4.6.981.981,0,0,0-.109,1.263,37.95,37.95,0,0,0,4.129,6.479,28.678,28.678,0,0,0,4.352,4.472q-.645.538-1.25,1.129a21.175,21.175,0,0,0-4.891,7.317,21.329,21.329,0,0,0-1.5,7.653,21.141,21.141,0,0,0,3.652,12.154,21.294,21.294,0,0,0,9.625,7.795.921.921,0,0,0,.691-1.706,19.411,19.411,0,0,1-3.98-2.189,10.364,10.364,0,0,0-1.562-7.258c-.289-.454.578-2.239,1.1-3.3a17.048,17.048,0,0,0,1.348-3.3,2.514,2.514,0,0,0-.891-2.758,6.762,6.762,0,0,0-2.191-.97,4.668,4.668,0,0,1-1.2-.471,11.968,11.968,0,0,1-1.562-2.536,15.749,15.749,0,0,0-1.68-2.764,19.556,19.556,0,0,1,5.809-7.652,16.091,16.091,0,0,0,7.754,2.88c-3.254,2.519-4.3,5.738-2.8,8.829,1.754,3.609,5.371,3.032,8.555,2.524.555-.088,1.129-.179,1.676-.247.2-.025.262.03.3.066.7.622.68,3.587.664,5.754-.023,3-.039,5.827,1.078,7.279a2.8,2.8,0,0,0,2.309,1.12,4.648,4.648,0,0,0,1.816-.41c2.773-1.189,5.664-4.767,5.223-7.6-.391-2.474-.645-4.109-.043-5.427.559-1.219,1.895-2.349,4.539-3.789a19.255,19.255,0,0,1,.461,4.427,19.3,19.3,0,0,1-5.84,13.674,19.542,19.542,0,0,1-15.738,5.424.921.921,0,0,0-.2,1.83,21.387,21.387,0,0,0,17.223-5.937,21.13,21.13,0,0,0,6.395-14.972,21.281,21.281,0,0,0-9.664-18.05c1.215-.867,2.117-1.616,2.617-2.052a24.514,24.514,0,0,1,5.633,5.644,24.249,24.249,0,0,1,4.242,18.208,24.449,24.449,0,0,1-28.078,20.118,24.255,24.255,0,0,1-15.875-9.872,24.251,24.251,0,0,1-4.246-18.207.921.921,0,0,0-1.816-.3,26.094,26.094,0,0,0,4.566,19.58,26.1,26.1,0,0,0,17.07,10.616,26.611,26.611,0,0,0,4.336.357,26.062,26.062,0,0,0,15.242-4.921,26.091,26.091,0,0,0,10.621-17.071,26.089,26.089,0,0,0-1.828-14.764,26.369,26.369,0,0,0,4.246-1.67c3.617-1.806,6.145-4.217,7.3-6.971s1.137-6.247-.094-10.1Zm-53.41,25.3a11.462,11.462,0,0,0,2.008,3.088,5.288,5.288,0,0,0,1.84.818c1.8.553,2.008.824,1.84,1.535a16.093,16.093,0,0,1-1.219,2.928c-.949,1.945-1.848,3.781-1,5.107a8.766,8.766,0,0,1,1.395,4.882,19.611,19.611,0,0,1-5.672-19.844c.27.465.559,1,.809,1.485Zm44.523-18.083-2.609-6.338a17.249,17.249,0,0,1,4-2.717,24.47,24.47,0,0,1,2.914-1.225Zm6-9.565a24.551,24.551,0,0,1,1.152,2.942,17.6,17.6,0,0,1,.832,4.436l-6.129,2.528Zm-11,6.532a8.645,8.645,0,0,1,1.027-1.786l2.98,7.213-2.676,6.39a25.167,25.167,0,0,1-1.2-3.03c-.75-2.38-1.383-5.835-.137-8.787Zm5.895,11.218a24.821,24.821,0,0,1-2.816,1.191l2.773-6.628,7.055-2.912a9.035,9.035,0,0,1-.609,2.326c-1.25,2.952-4.172,4.9-6.4,6.023Zm-33.184-.524c-.324-.064-.645-.142-.961-.23l10.184-7.465,8.387,1.634c-3.055,2.408-10.488,7.457-17.609,6.062Zm-9.309-5.757a35.756,35.756,0,0,1-4.687-6.466l10.672,2.081Zm1.883-12.278,4.469,6.09-10.742-2.093a36.384,36.384,0,0,1,6.273-4Zm7.129,6.61-5.41-7.385a20.739,20.739,0,0,1,5.141-1.423l7.488,10.214Zm-.57,1.763,7.633,1.488-9.8,7.18a19.031,19.031,0,0,1-4.965-3.443Zm24.969,17.971c-3.316,1.767-4.941,3.156-5.711,4.849-.828,1.818-.523,3.771-.1,6.471.242,1.593-1.648,4.56-4.129,5.623-.918.392-1.57.345-1.945-.139-.73-.951-.711-3.832-.7-6.146.02-3.2.043-5.966-1.281-7.141a2.173,2.173,0,0,0-1.758-.519c-.578.073-1.164.166-1.73.256-3.383.54-5.512.755-6.613-1.511-1.789-3.673,1.828-6.393,3.465-7.392a5.6,5.6,0,0,0,.93-.709,26.709,26.709,0,0,0,11.035-4.3,19.525,19.525,0,0,1,8.535,10.657ZM-55776.07,7715.236Z" transform="translate(55820.816 -7684.726)" fill="#2b2a29" fill-rule="evenodd"/></g></svg>