<svg xmlns="http://www.w3.org/2000/svg" width="62.813" height="49.565" viewBox="0 0 62.813 49.565"><g transform="translate(-0.002)"><path d="M-57421.133,3802.989a1.232,1.232,0,0,0-.656-1.2l-11.488-6.024,11.281-3.488a1.224,1.224,0,0,0,.863-1.06,1.233,1.233,0,0,0-.656-1.2l-22.848-11.977a1.228,1.228,0,0,0-.934-.086l-37.508,11.594a1.22,1.22,0,0,0-.859,1.06,1.22,1.22,0,0,0,.648,1.2l7.895,4.136a41.372,41.372,0,0,0,3.8,1.762l-11.492,3.615a1.222,1.222,0,0,0-.855,1.061,1.216,1.216,0,0,0,.648,1.2l11.492,6.024-11.281,3.488a1.219,1.219,0,0,0-.859,1.06,1.219,1.219,0,0,0,.648,1.2l22.848,11.978a1.247,1.247,0,0,0,.574.141,1.2,1.2,0,0,0,.359-.054l13.988-4.325a1.23,1.23,0,0,0,.816-1.534,1.233,1.233,0,0,0-1.539-.81l-13.5,4.174-19.77-10.362,10.8-3.338,8.273,4.338a1.253,1.253,0,0,0,.574.141,1.185,1.185,0,0,0,.359-.055l22.906-7.079,11.043,5.789-11.293,3.49a1.229,1.229,0,0,0-.809,1.535,1.23,1.23,0,0,0,1.176.864,1.261,1.261,0,0,0,.359-.054l14.133-4.368a1.227,1.227,0,0,0,.859-1.06,1.232,1.232,0,0,0-.656-1.2l-11.488-6.024,11.285-3.487a1.226,1.226,0,0,0,.859-1.06Zm-58.383-11.973,34.184-10.565,19.773,10.362-18.535,5.728c-.9.278-1.8.521-2.711.734l-2.57-.753a12.277,12.277,0,0,1-7.363-5.917,1.213,1.213,0,0,0-.977-.634,1.225,1.225,0,0,0-1.066.467,11.769,11.769,0,0,1-9.328,4.551h-3.609q-1.289-.562-2.543-1.218Zm14.2,6.155a14.162,14.162,0,0,0,7.336-3.935,14.712,14.712,0,0,0,5.945,4.9,39.315,39.315,0,0,1-13.289-.97Zm5.574,15.977-19.785-10.371,11.82-3.719c.586.172,1.184.331,1.777.477a1.233,1.233,0,0,0-.223.7,1.211,1.211,0,0,0,.363.867,1.222,1.222,0,0,0,.867.36,1.234,1.234,0,0,0,.863-.36,1.224,1.224,0,0,0,.359-.867.953.953,0,0,0-.016-.211q2,.379,4.043.568,1.945.179,3.891.178a41.788,41.788,0,0,0,7.539-.686c0,.05-.008.1-.008.15a1.25,1.25,0,0,0,.352.867,1.252,1.252,0,0,0,.871.36,1.247,1.247,0,0,0,.871-.359,1.242,1.242,0,0,0,.359-.867,1.166,1.166,0,0,0-.18-.631c.879-.21,1.746-.448,2.617-.714l2.559-.792a1.146,1.146,0,0,0,.219.306,1.254,1.254,0,0,0,.871.359,1.261,1.261,0,0,0,.871-.359,1.252,1.252,0,0,0,.352-.867c0-.051,0-.1-.008-.151l1.9-.586,11.043,5.789-34.187,10.565ZM-57459.746,3813.148Z" transform="translate(57483.941 -3777.902)" fill="#2b2a29" fill-rule="evenodd"/><path d="M-56913.3,4344.73a1.245,1.245,0,0,0-.867.359,1.241,1.241,0,0,0-.355.868,1.24,1.24,0,0,0,.355.867,1.245,1.245,0,0,0,.867.359,1.24,1.24,0,0,0,.871-.359,1.244,1.244,0,0,0,.359-.867,1.244,1.244,0,0,0-.359-.868A1.24,1.24,0,0,0-56913.3,4344.73ZM-56913.3,4344.73Z" transform="translate(56956.051 -4303.391)" fill="#2b2a29" fill-rule="evenodd"/><path d="M-57160.09,4186.69a1.238,1.238,0,0,0-.871.359,1.243,1.243,0,0,0-.359.867,1.244,1.244,0,0,0,.359.867,1.238,1.238,0,0,0,.871.359,1.226,1.226,0,0,0,.863-.359,1.248,1.248,0,0,0,.363-.867,1.247,1.247,0,0,0-.363-.867A1.228,1.228,0,0,0-57160.09,4186.69ZM-57160.09,4186.69Z" transform="translate(57184.852 -4156.876)" fill="#2b2a29" fill-rule="evenodd"/><path d="M-57258.2,4137.06a1.242,1.242,0,0,0-.867.359,1.243,1.243,0,0,0-.359.867,1.243,1.243,0,0,0,.359.868,1.247,1.247,0,0,0,.867.359,1.249,1.249,0,0,0,.871-.359,1.243,1.243,0,0,0,.359-.868,1.243,1.243,0,0,0-.359-.867A1.245,1.245,0,0,0-57258.2,4137.06ZM-57258.2,4137.06Z" transform="translate(57275.797 -4110.866)" fill="#2b2a29" fill-rule="evenodd"/><path d="M-57033.59,4137.06a1.259,1.259,0,0,0-.871.359,1.256,1.256,0,0,0-.355.867,1.257,1.257,0,0,0,.355.868,1.263,1.263,0,0,0,.871.359,1.24,1.24,0,0,0,.867-.359,1.227,1.227,0,0,0,.359-.868,1.226,1.226,0,0,0-.359-.867A1.235,1.235,0,0,0-57033.59,4137.06ZM-57033.59,4137.06Z" transform="translate(57067.57 -4110.866)" fill="#2b2a29" fill-rule="evenodd"/><path d="M-56907.391,4085.75a1.238,1.238,0,0,0-.871.36,1.245,1.245,0,0,0-.363.867,1.247,1.247,0,0,0,.363.868,1.238,1.238,0,0,0,.871.36,1.234,1.234,0,0,0,.863-.36,1.226,1.226,0,0,0,.359-.868,1.225,1.225,0,0,0-.359-.867A1.234,1.234,0,0,0-56907.391,4085.75ZM-56907.391,4085.75Z" transform="translate(56950.582 -4063.298)" fill="#2b2a29" fill-rule="evenodd"/><path d="M-57121.887,4121.85a1.247,1.247,0,0,0-.867.359,1.243,1.243,0,0,0-.359.868,1.242,1.242,0,0,0,.359.867,1.243,1.243,0,0,0,.867.36,1.236,1.236,0,0,0,.867-.36,1.225,1.225,0,0,0,.359-.867,1.227,1.227,0,0,0-.359-.868A1.24,1.24,0,0,0-57121.887,4121.85ZM-57121.887,4121.85Z" transform="translate(57149.43 -4096.766)" fill="#2b2a29" fill-rule="evenodd"/></g></svg>