<svg xmlns="http://www.w3.org/2000/svg" width="59.18" height="52.911" viewBox="0 0 59.18 52.911"><g transform="translate(0)"><path d="M-57068.656,6450.63a1.171,1.171,0,0,0-.82.338,1.159,1.159,0,0,0-.336.816,1.162,1.162,0,0,0,.336.818,1.177,1.177,0,0,0,.82.338,1.132,1.132,0,0,0,.813-.338,1.157,1.157,0,0,0,.348-.818,1.159,1.159,0,0,0-.348-.816A1.126,1.126,0,0,0-57068.656,6450.63ZM-57068.656,6450.63Z" transform="translate(57098.27 -6400.031)" fill="#2b2a29" fill-rule="evenodd"/><path d="M-57425.078,5882.766a1.163,1.163,0,0,0-.875-.4h-4.68a1.152,1.152,0,0,0-1.141.964l-2.391,14.152a6.245,6.245,0,0,1-4.344,1.738,6.284,6.284,0,0,1-4.469-1.85,1.154,1.154,0,0,0-1.633,0,6.32,6.32,0,0,1-8.93,0,1.164,1.164,0,0,0-1.641,0,6.329,6.329,0,0,1-8.937,0,1.154,1.154,0,0,0-1.633,0,6.326,6.326,0,0,1-8.875.058l-2.367-14.1a1.158,1.158,0,0,0-1.141-.964h-4.687a1.155,1.155,0,0,0-.867.4,1.151,1.151,0,0,0-.281.9.57.57,0,0,0,.023.115l6.234,37.052a3.457,3.457,0,0,0,3.422,2.892h15.3a1.156,1.156,0,0,0,1.156-1.156,1.154,1.154,0,0,0-1.156-1.155h-15.3a1.165,1.165,0,0,1-1.148-.964l-6.016-35.768h2.344l5.633,33.456a1.152,1.152,0,0,0,1.141.964h35.9a1.152,1.152,0,0,0,1.141-.964l5.633-33.456h2.352l-6.031,35.768a1.145,1.145,0,0,1-1.141.964h-15.258a1.159,1.159,0,0,0-1.156,1.155,1.161,1.161,0,0,0,1.156,1.156h15.258a3.457,3.457,0,0,0,3.422-2.892l6.242-37.049a.561.561,0,0,0,.016-.117,1.146,1.146,0,0,0-.273-.9Zm-12.328,34.023h-33.953l-.547-3.235h9.469a1.154,1.154,0,0,0,1.148-1.157,1.152,1.152,0,0,0-1.148-1.154h-9.859l-1.781-10.623a8.644,8.644,0,0,0,9.148-.891,8.651,8.651,0,0,0,10.57,0,8.589,8.589,0,0,0,5.281,1.8,8.64,8.64,0,0,0,5.289-1.8,8.6,8.6,0,0,0,5.281,1.8,8.623,8.623,0,0,0,3.813-.889ZM-57437.406,5916.789Z" transform="translate(57483.977 -5870.813)" fill="#2b2a29" fill-rule="evenodd"/><path d="M-57181.848,5737.706a9.476,9.476,0,0,0,9.477-9.454,9.491,9.491,0,0,0-2.1-5.94.312.312,0,0,1-.047-.056l-5.734-7.3a2.062,2.062,0,0,0-1.629-.785h0a2.046,2.046,0,0,0-1.617.793l-5.711,7.34s-.008,0-.008.005a9.454,9.454,0,0,0-2.105,5.943,9.476,9.476,0,0,0,9.477,9.454Zm-5.562-13.961c.012-.016.027-.031.039-.047l5.5-7.059,5.48,6.97a.69.69,0,0,0,.074.1,7.166,7.166,0,0,1,1.641,4.544,7.165,7.165,0,0,1-7.168,7.142,7.161,7.161,0,0,1-7.164-7.142,7.165,7.165,0,0,1,1.6-4.507ZM-57187.41,5723.745Z" transform="translate(57211.43 -5714.17)" fill="#2b2a29" fill-rule="evenodd"/><path d="M-57118.969,6302.61a1.17,1.17,0,0,0-.82.339,1.176,1.176,0,0,0-.336.816,1.181,1.181,0,0,0,.336.817,1.176,1.176,0,0,0,.82.339,1.144,1.144,0,0,0,.813-.339,1.157,1.157,0,0,0,.344-.817,1.15,1.15,0,0,0-.344-.816A1.138,1.138,0,0,0-57118.969,6302.61ZM-57118.969,6302.61Z" transform="translate(57145.125 -6262.181)" fill="#2b2a29" fill-rule="evenodd"/></g></svg>